# xmcd CD database file
#
# Track frame offsets:
#	150
#	12854
#	24179
#	36554
#	47572
#	75472
#	91822
#	104947
#	115897
#	127447
#	138547
#	150697
#	172597
#	187735
#	202435
#	216301
#
# Disc length: 3049 seconds
#
# Revision: 0
# Processed by: cddbd v1.5.1PL0 Copyright (c) Steve Scherf et al.
# Submitted via: CDex 1.50beta9
#
DISCID=df0be710
DTITLE=B.B. King - Got The Blues
DYEAR=2003
DGENRE=Blues
TTITLE0=Got The Blues
TTITLE1=She's Dynamite
TTITLE2=I Gotta Find My Baby
TTITLE3=When Your Baby Packs Up And Goes
TTITLE4=Payin' The Cost To Be The Boss
TTITLE5=The Other Night Blues
TTITLE6=Questionnaire Blues
TTITLE7=Everything I Do Is Wrong
TTITLE8=Take A Swing With Me
TTITLE9=B.B. Blues
TTITLE10=Miss Martha King
TTITLE11=The Thrill Is Gone
TTITLE12=My Own Fault Darlin'
TTITLE13=B.B.'s Boogie
TTITLE14=She Don't Move Me No More
TTITLE15=Mistreated Woman
EXTD=YEAR: 2003
EXTT0=
EXTT1=
EXTT2=
EXTT3=
EXTT4=
EXTT5=
EXTT6=
EXTT7=
EXTT8=
EXTT9=
EXTT10=
EXTT11=
EXTT12=
EXTT13=
EXTT14=
EXTT15=
PLAYORDER=
